<?xml version="1.0" encoding="UTF-8"?>
<svg id="Ebene_2" xmlns="http://www.w3.org/2000/svg" version="1.1" viewBox="0 0 1170 611">
  <defs>
    <style>
      .st0 {
        fill: none;
        stroke: #000;
        stroke-miterlimit: 10;
        stroke-width: 10px;
      }
    </style>
  </defs>
  <g id="Ebene_1-2">
    <g>
      <path d="M219.7,232.8c14.2,0,25.2,5.2,31.6,13.4,6.2-8.2,17.2-13.4,31.4-13.4,26.4,0,42.8,17,42.8,46.6v62h-31.6v-63.2c0-10.2-5.4-16-13.4-16s-13.4,5.8-13.4,16v63.2h-31.6v-63.2c0-10.2-5.2-16-13.4-16s-13.4,5.8-13.4,16v63.2h-31.6v-62c0-29.6,16.4-46.6,42.6-46.6h0Z"/>
      <path d="M341.7,288.8c0-33.4,24-56,54.8-56s55.6,19.8,51.2,64.2h-76.2c3,12.6,13.2,20.2,27.2,20.2s20.8-4.8,28.6-14.6l20.4,17c-11.8,15.6-28.6,24.4-49.6,24.4-33.8,0-56.4-22.8-56.4-55.2ZM418.5,275.2c-2.4-10.8-10.4-16.8-22.2-16.8s-21,6.6-24.4,16.8h46.6Z"/>
      <path d="M507.7,232.8c14.2,0,25.2,5.2,31.6,13.4,6.2-8.2,17.2-13.4,31.4-13.4,26.4,0,42.8,17,42.8,46.6v62h-31.6v-63.2c0-10.2-5.4-16-13.4-16s-13.4,5.8-13.4,16v63.2h-31.6v-63.2c0-10.2-5.2-16-13.4-16s-13.4,5.8-13.4,16v63.2h-31.6v-62c0-29.6,16.4-46.6,42.6-46.6h0Z"/>
      <path d="M629.7,288.6c0-32.6,25.2-55.8,56.6-55.8s56.6,23.2,56.6,55.8-25.2,55.8-56.6,55.8-56.6-23.2-56.6-55.8ZM686.3,315c14.2,0,25-10.6,25-26.4s-10.8-26.4-25-26.4-25,10.6-25,26.4,10.8,26.4,25,26.4Z"/>
      <path d="M797.3,235.4h13.6v28.4h-10.6c-6.4,0-9.2,2.8-9.2,9.2v68.4h-31.6v-67.6c0-26.6,14.2-38.4,37.8-38.4Z"/>
      <path d="M826.3,186.8h31.6v32.4h-31.6v-32.4h0ZM826.3,235.4h31.6v106h-31.6v-106Z"/>
      <path d="M875.3,288.4c0-32.6,24.2-55,52.8-55s23.4,4,30.6,11.6l.2-9.6h28v106h-28l-.2-9.6c-7.2,7.6-18.8,11.6-30.6,11.6-28.6,0-52.8-22.4-52.8-55ZM932.3,314.6c14.4,0,25-10.2,25-26.2s-10.6-26.2-25-26.2-25.4,10.2-25.4,26.2,10.8,26.2,25.4,26.2Z"/>
    </g>
    <rect class="st0" x="59.2" y="63" width="1048" height="483"/>
    <rect class="st0" x="86.5" y="90.6" width="991" height="350"/>
  </g>
</svg>